<svg width="28" height="29" viewBox="0 0 28 29" fill="none" xmlns="http://www.w3.org/2000/svg">
<path fill-rule="evenodd" clip-rule="evenodd" d="M3.5 16.2812H4H25H25.5V16.7812V16.7821V16.7829V16.7837V16.7845V16.7852V16.786V16.7868V16.7876V16.7884V16.7892V16.79V16.7908V16.7916V16.7924V16.7932V16.794V16.7947V16.7955V16.7963V16.7971V16.7979V16.7987V16.7994V16.8002V16.801V16.8018V16.8025V16.8033V16.8041V16.8049V16.8056V16.8064V16.8072V16.808V16.8087V16.8095V16.8103V16.811V16.8118V16.8126V16.8133V16.8141V16.8148V16.8156V16.8164V16.8171V16.8179V16.8186V16.8194V16.8201V16.8209V16.8217V16.8224V16.8232V16.8239V16.8247V16.8254V16.8262V16.8269V16.8277V16.8284V16.8291V16.8299V16.8306V16.8314V16.8321V16.8329V16.8336V16.8343V16.8351V16.8358V16.8366V16.8373V16.838V16.8388V16.8395V16.8402V16.841V16.8417V16.8424V16.8432V16.8439V16.8446V16.8454V16.8461V16.8468V16.8475V16.8483V16.849V16.8497V16.8504V16.8512V16.8519V16.8526V16.8533V16.8541V16.8548V16.8555V16.8562V16.8569V16.8577V16.8584V16.8591V16.8598V16.8605V16.8612V16.862V16.8627V16.8634V16.8641V16.8648V16.8655V16.8662V16.8669V16.8676V16.8684V16.8691V16.8698V16.8705V16.8712V16.8719V16.8726V16.8733V16.874V16.8747V16.8754V16.8761V16.8768V16.8775V16.8782V16.8789V16.8796V16.8803V16.881V16.8817V16.8824V16.8831V16.8838V16.8845V16.8852V16.8859V16.8866V16.8873V16.888V16.8887V16.8894V16.8901V16.8908V16.8914V16.8921V16.8928V16.8935V16.8942V16.8949V16.8956V16.8963V16.897V16.8977V16.8983V16.899V16.8997V16.9004V16.9011V16.9018V16.9025V16.9032V16.9038V16.9045V16.9052V16.9059V16.9066V16.9073V16.9079V16.9086V16.9093V16.91V16.9107V16.9113V16.912V16.9127V16.9134V16.9141V16.9148V16.9154V16.9161V16.9168V16.9175V16.9181V16.9188V16.9195V16.9202V16.9209V16.9215V16.9222V16.9229V16.9236V16.9242V16.9249V16.9256V16.9263V16.9269V16.9276V16.9283V16.929V16.9296V16.9303V16.931V16.9317V16.9323V16.933V16.9337V16.9343V16.935V16.9357V16.9364V16.937V16.9377V16.9384V16.939V16.9397V16.9404V16.9411V16.9417V16.9424V16.9431V16.9437V16.9444V16.9451V16.9458V16.9464V16.9471V16.9478V16.9484V16.9491V16.9498V16.9504V16.9511V16.9518V16.9525V16.9531V16.9538V16.9545V16.9551V16.9558V16.9565V16.9571V16.9578V16.9585V16.9591V16.9598V16.9605V16.9611V16.9618V16.9625V16.9632V16.9638V16.9645V16.9652V16.9658V16.9665V16.9672V16.9678V16.9685V16.9692V16.9698V16.9705V16.9712V16.9718V16.9725V16.9732V16.9739V16.9745V16.9752V16.9759V16.9765V16.9772V16.9779V16.9785V16.9792V16.9799V16.9805V16.9812V16.9819V16.9826V16.9832V16.9839V16.9846V16.9852V16.9859V16.9866V16.9873V16.9879V16.9886V16.9893V16.9899V16.9906V16.9913V16.992V16.9926V16.9933V16.994V16.9946V16.9953V16.996V16.9967V16.9973V16.998V16.9987V16.9994V17V17.0007V17.0014V17.0021V17.0027V17.0034V17.0041V17.0048V17.0054V17.0061V17.0068V17.0075V17.0081V17.0088V17.0095V17.0102V17.0109V17.0115V17.0122V17.0129V17.0136V17.0143V17.0149V17.0156V17.0163V17.017V17.0177V17.0183V17.019V17.0197V17.0204V17.0211V17.0218V17.0224V17.0231V17.0238V17.0245V17.0252V17.0259V17.0265V17.0272V17.0279V17.0286V17.0293V17.03V17.0307V17.0314V17.0321V17.0327V17.0334V17.0341V17.0348V17.0355V17.0362V17.0369V17.0376V17.0383V17.039V17.0397V17.0404V17.0411V17.0417V17.0424V17.0431V17.0438V17.0445V17.0452V17.0459V17.0466V17.0473V17.048V17.0487V17.0494V17.0501V17.0508V17.0515V17.0522V17.0529V17.0536V17.0543V17.0551V17.0558V17.0565V17.0572V17.0579V17.0586V17.0593V17.06V17.0607V17.0614V17.0621V17.0628V17.0636V17.0643V17.065V17.0657V17.0664V17.0671V17.0678V17.0686V17.0693V17.07V17.0707V17.0714V17.0721V17.0729V17.0736V17.0743V17.075V17.0757V17.0765V17.0772V17.0779V17.0786V17.0794V17.0801V17.0808V17.0816V17.0823V17.083V17.0837V17.0845V17.0852V17.0859V17.0867V17.0874V17.0881V17.0889V17.0896V17.0903V17.0911V17.0918V17.0926V17.0933V17.094V17.0948V17.0955V17.0963V17.097V17.0978V17.0985V17.0992V17.1V17.1007V17.1015V17.1022V17.103V17.1037V17.1045V17.1052V17.106V17.1067V17.1075V17.1083V17.109V17.1098V17.1105V17.1113V17.112V17.1128V17.1136V17.1143V17.1151V17.1159V17.1166V17.1174V17.1182V17.1189V17.1197V17.1205V17.1212V17.122V17.1228V17.1236V17.1243V17.1251V17.1259V17.1267V17.1274V17.1282V17.129V17.1298V17.1306V17.1313V17.1321V17.1329V17.1337V17.1345V17.1353V17.1361V17.1368V17.1376V17.1384V17.1392V17.14V17.1408V17.1416V17.1424V17.1432V17.144V17.1448V17.1456V17.1464C25.5 23.3045 20.5954 28.2812 14.5 28.2812C8.40456 28.2812 3.5 23.3045 3.5 17.1464V17.1456V17.1448V17.144V17.1432V17.1424V17.1416V17.1408V17.14V17.1392V17.1384V17.1376V17.1368V17.1361V17.1353V17.1345V17.1337V17.1329V17.1321V17.1313V17.1306V17.1298V17.129V17.1282V17.1274V17.1267V17.1259V17.1251V17.1243V17.1236V17.1228V17.122V17.1212V17.1205V17.1197V17.1189V17.1182V17.1174V17.1166V17.1159V17.1151V17.1143V17.1136V17.1128V17.112V17.1113V17.1105V17.1098V17.109V17.1083V17.1075V17.1067V17.106V17.1052V17.1045V17.1037V17.103V17.1022V17.1015V17.1007V17.1V17.0992V17.0985V17.0978V17.097V17.0963V17.0955V17.0948V17.094V17.0933V17.0926V17.0918V17.0911V17.0903V17.0896V17.0889V17.0881V17.0874V17.0867V17.0859V17.0852V17.0845V17.0837V17.083V17.0823V17.0816V17.0808V17.0801V17.0794V17.0786V17.0779V17.0772V17.0765V17.0757V17.075V17.0743V17.0736V17.0729V17.0721V17.0714V17.0707V17.07V17.0693V17.0686V17.0678V17.0671V17.0664V17.0657V17.065V17.0643V17.0636V17.0628V17.0621V17.0614V17.0607V17.06V17.0593V17.0586V17.0579V17.0572V17.0565V17.0558V17.0551V17.0543V17.0536V17.0529V17.0522V17.0515V17.0508V17.0501V17.0494V17.0487V17.048V17.0473V17.0466V17.0459V17.0452V17.0445V17.0438V17.0431V17.0424V17.0417V17.0411V17.0404V17.0397V17.039V17.0383V17.0376V17.0369V17.0362V17.0355V17.0348V17.0341V17.0334V17.0327V17.0321V17.0314V17.0307V17.03V17.0293V17.0286V17.0279V17.0272V17.0265V17.0259V17.0252V17.0245V17.0238V17.0231V17.0224V17.0218V17.0211V17.0204V17.0197V17.019V17.0183V17.0177V17.017V17.0163V17.0156V17.0149V17.0143V17.0136V17.0129V17.0122V17.0115V17.0109V17.0102V17.0095V17.0088V17.0081V17.0075V17.0068V17.0061V17.0054V17.0048V17.0041V17.0034V17.0027V17.0021V17.0014V17.0007V17V16.9994V16.9987V16.998V16.9973V16.9967V16.996V16.9953V16.9946V16.994V16.9933V16.9926V16.992V16.9913V16.9906V16.9899V16.9893V16.9886V16.9879V16.9873V16.9866V16.9859V16.9852V16.9846V16.9839V16.9832V16.9826V16.9819V16.9812V16.9805V16.9799V16.9792V16.9785V16.9779V16.9772V16.9765V16.9759V16.9752V16.9745V16.9739V16.9732V16.9725V16.9718V16.9712V16.9705V16.9698V16.9692V16.9685V16.9678V16.9672V16.9665V16.9658V16.9652V16.9645V16.9638V16.9632V16.9625V16.9618V16.9611V16.9605V16.9598V16.9591V16.9585V16.9578V16.9571V16.9565V16.9558V16.9551V16.9545V16.9538V16.9531V16.9525V16.9518V16.9511V16.9504V16.9498V16.9491V16.9484V16.9478V16.9471V16.9464V16.9458V16.9451V16.9444V16.9437V16.9431V16.9424V16.9417V16.9411V16.9404V16.9397V16.939V16.9384V16.9377V16.937V16.9364V16.9357V16.935V16.9343V16.9337V16.933V16.9323V16.9317V16.931V16.9303V16.9296V16.929V16.9283V16.9276V16.9269V16.9263V16.9256V16.9249V16.9242V16.9236V16.9229V16.9222V16.9215V16.9209V16.9202V16.9195V16.9188V16.9181V16.9175V16.9168V16.9161V16.9154V16.9148V16.9141V16.9134V16.9127V16.912V16.9113V16.9107V16.91V16.9093V16.9086V16.9079V16.9073V16.9066V16.9059V16.9052V16.9045V16.9038V16.9032V16.9025V16.9018V16.9011V16.9004V16.8997V16.899V16.8983V16.8977V16.897V16.8963V16.8956V16.8949V16.8942V16.8935V16.8928V16.8921V16.8914V16.8908V16.8901V16.8894V16.8887V16.888V16.8873V16.8866V16.8859V16.8852V16.8845V16.8838V16.8831V16.8824V16.8817V16.881V16.8803V16.8796V16.8789V16.8782V16.8775V16.8768V16.8761V16.8754V16.8747V16.874V16.8733V16.8726V16.8719V16.8712V16.8705V16.8698V16.8691V16.8684V16.8676V16.8669V16.8662V16.8655V16.8648V16.8641V16.8634V16.8627V16.862V16.8612V16.8605V16.8598V16.8591V16.8584V16.8577V16.8569V16.8562V16.8555V16.8548V16.8541V16.8533V16.8526V16.8519V16.8512V16.8504V16.8497V16.849V16.8483V16.8475V16.8468V16.8461V16.8454V16.8446V16.8439V16.8432V16.8424V16.8417V16.841V16.8402V16.8395V16.8388V16.838V16.8373V16.8366V16.8358V16.8351V16.8343V16.8336V16.8329V16.8321V16.8314V16.8306V16.8299V16.8291V16.8284V16.8277V16.8269V16.8262V16.8254V16.8247V16.8239V16.8232V16.8224V16.8217V16.8209V16.8201V16.8194V16.8186V16.8179V16.8171V16.8164V16.8156V16.8148V16.8141V16.8133V16.8126V16.8118V16.811V16.8103V16.8095V16.8087V16.808V16.8072V16.8064V16.8056V16.8049V16.8041V16.8033V16.8025V16.8018V16.801V16.8002V16.7994V16.7987V16.7979V16.7971V16.7963V16.7955V16.7947V16.794V16.7932V16.7924V16.7916V16.7908V16.79V16.7892V16.7884V16.7876V16.7868V16.786V16.7852V16.7845V16.7837V16.7829V16.7821V16.7812V16.2812ZM4.50086 17.2812C4.5717 22.8364 9.01316 27.2812 14.5 27.2812C19.9868 27.2812 24.4283 22.8364 24.4991 17.2812H4.50086Z" fill="#fff"/>
<path d="M9.9038 17.7812H5C5 17.8877 5 17.9586 5 18.065C5 21.3812 7.5 24.2812 9.04405 24.7812C9.04405 24.1428 8.3435 23.4207 8.3435 23.066C8.3435 22.534 8.59825 22.3566 8.59825 22.3566C8.59825 22.3566 9.04405 22.0019 9.458 21.6473C9.87196 21.2926 10.1585 20.9379 9.9038 20.6187C9.64906 20.2995 8.72562 20.1576 9.04405 19.5192C9.39432 18.8453 9.9038 17.7812 9.9038 17.7812Z" fill="white"/>
<path d="M14.7642 26.7812C18.9231 26.7812 23.1467 23.6025 24 18.7812L18.5278 20.4237C18.5278 20.4237 17.6653 20.1173 17.6261 21.1513C17.5869 22.1854 17.7045 23.028 16.9988 22.9897C16.2931 22.9514 15.117 22.9897 15.117 22.9897C15.117 22.9897 14.8034 22.8748 14.3329 23.6025C13.9409 24.2535 13.2744 25.4408 13 26.6281C13.6273 26.743 14.1761 26.7812 14.7642 26.7812Z" fill="#D9D9D9"/>
<path d="M15.0186 4.78125C15.0186 4.78125 12 6.55717 12 10.2896C12 11.4635 12.8199 13.7812 15.0186 13.7812C17.2174 13.7812 18 11.4334 18 10.2595C18 9.0856 17.8509 6.94847 15.0186 4.78125Z" fill="#fff"/>
<path d="M7.01626 8.78125C7.01626 8.78125 5 9.96966 5 12.4624C5 13.245 5.52033 14.7812 7.01626 14.7812C8.51219 14.7812 9 13.216 9 12.4334C9 11.6508 8.90244 10.2305 7.01626 8.78125Z" fill="#fff"/>
<path d="M22.0163 7.78125C22.0163 7.78125 20 9.16772 20 12.0759C20 12.989 20.5203 14.7812 22.0163 14.7812C23.5122 14.7812 24 12.9552 24 12.0421C24 11.1291 23.9024 9.47207 22.0163 7.78125Z" fill="#fff"/>
<path fill-rule="evenodd" clip-rule="evenodd" d="M6.63672 16.7812V11.7812H7.36402V16.7812H6.63672Z" fill="#fff"/>
<path fill-rule="evenodd" clip-rule="evenodd" d="M14.6367 16.7812V11.7812H15.364V16.7812H14.6367Z" fill="#fff"/>
<path fill-rule="evenodd" clip-rule="evenodd" d="M21.6367 16.7812V11.7812H22.364V16.7812H21.6367Z" fill="#fff"/>
<path d="M10.95 3.61176C10.5 3.61176 10.1 3.7643 9.8 3.96769C9.8 3.91684 9.8 3.91684 9.8 3.866C9.8 2.6965 8.9 1.78125 7.75 1.78125C6.65 1.8321 5.75 2.64566 5.7 3.7643C5.5 3.66261 5.25 3.61176 5.05 3.61176C3.9 3.61176 3 4.57786 3 5.6965C3 6.866 3.9 7.78125 5.05 7.78125H10.95C12.1 7.78125 13 6.866 13 5.6965C13 4.57786 12.05 3.61176 10.95 3.61176Z" fill="#fff"/>
</svg>
