<svg width="28" height="28" viewBox="0 0 28 28" fill="none" xmlns="http://www.w3.org/2000/svg">
<path d="M1.4 14.6328C1.974 15.0388 2.744 15.2348 3.5 15.2348C4.27 15.2348 5.026 15.0388 5.6 14.6328C6.468 13.9888 7 12.9948 7 11.8328C7 12.9948 7.518 13.9888 8.4 14.6328C8.974 15.0388 9.744 15.2348 10.5 15.2348C11.27 15.2348 12.026 15.0388 12.6 14.6328C13.468 13.9888 14 12.9948 14 11.8328C14 12.9948 14.518 13.9888 15.4 14.6328C15.974 15.0388 16.744 15.2348 17.514 15.2348C18.27 15.2348 19.026 15.0388 19.6 14.6328C20.468 13.9888 21 12.9948 21 11.8328C21 12.9948 21.518 13.9888 22.4 14.6328C22.974 15.0388 23.744 15.2348 24.5 15.2348C25.27 15.2348 26.026 15.0388 26.6 14.6328C27.482 13.9888 28 12.9948 28 11.8328V10.4328L23.8 0.632812H5.6L0 10.4328V11.8328C0 12.9948 0.518 13.9888 1.4 14.6328ZM4.2 27.2188H11.2V20.2188H16.8V27.2188H23.8V17.4188C23.282 17.3488 22.792 17.1108 22.4 16.8168C21.518 16.1868 21 15.7948 21 14.6328C21 15.7948 20.468 16.1868 19.6 16.8168C19.026 17.2368 18.27 17.4188 17.514 17.4328C16.744 17.4328 15.974 17.2368 15.4 16.8168C14.518 16.1868 14 15.7948 14 14.6328C14 15.7948 13.468 16.1868 12.6 16.8168C12.026 17.2368 11.27 17.4188 10.5 17.4328C9.744 17.4328 8.974 17.2368 8.4 16.8168C7.518 16.1868 7 15.7948 7 14.6188C7 15.7948 6.468 16.1868 5.6 16.8168C5.194 17.1108 4.718 17.3488 4.2 17.4328V27.2188Z" fill="white"/>
</svg>
