<svg width="55" height="55" viewBox="0 0 55 55" fill="none" xmlns="http://www.w3.org/2000/svg">
<rect width="55" height="55" fill="#0012B5" fill-opacity="0.43"/>
<path fill-rule="evenodd" clip-rule="evenodd" d="M35.3682 12.75C36.9942 12.75 38.7121 13.3183 40.2858 13.9455L41.4376 14.4176C44.1915 15.5716 45.7389 17.9933 46.9388 20.6532C48.8862 24.9698 50.2391 30.7245 50.7068 35.1001C50.9297 37.1764 50.9843 39.2658 50.5844 40.6712C50.1538 42.1727 48.6895 43.2349 47.2666 44.0698L46.5629 44.4698L45.8329 44.8763C45.4569 45.0861 45.0701 45.2938 44.6854 45.497L43.5445 46.0871L41.9774 46.8674L40.7163 47.4881C40.4587 47.627 40.1758 47.7128 39.8844 47.7403C39.593 47.7678 39.299 47.7365 39.0199 47.6483C38.7409 47.56 38.4824 47.4166 38.2598 47.2265C38.0372 47.0365 37.855 46.8036 37.7241 46.5418C37.5932 46.28 37.5162 45.9946 37.4977 45.7025C37.4792 45.4104 37.5196 45.1175 37.6164 44.8413C37.7133 44.5651 37.8646 44.3111 38.0615 44.0945C38.2583 43.8779 38.4967 43.703 38.7624 43.5802L40.489 42.7279L39.2214 41.3968C36.1834 42.6426 32.6055 43.3486 28.8048 43.3486C25.004 43.3486 21.4261 42.6448 18.3881 41.3968L17.1205 42.7257L18.8537 43.5781C19.1105 43.7064 19.3396 43.884 19.5279 44.1008C19.7161 44.3177 19.8598 44.5695 19.9507 44.8418C20.0416 45.1142 20.078 45.4018 20.0578 45.6882C20.0376 45.9746 19.9611 46.2543 19.8328 46.5112C19.7045 46.768 19.5269 46.9971 19.3101 47.1854C19.0932 47.3736 18.8414 47.5173 18.5691 47.6082C18.019 47.7918 17.4185 47.7494 16.8997 47.4903L15.7108 46.9002C14.8321 46.4631 13.9513 46.0303 13.0815 45.5735L11.0532 44.4698L10.3516 44.0698C8.9288 43.2349 7.46226 42.1727 7.03388 40.6712C6.63173 39.2658 6.68855 37.1786 6.9093 35.0979C7.37702 30.7245 8.72991 24.9698 10.6773 20.6532C11.8772 17.9933 13.4246 15.5716 16.1785 14.4176C18.0057 13.6527 20.2197 12.75 22.2479 12.75C23.5658 12.75 24.6018 13.963 24.4117 15.2569C25.8661 15.0417 27.3345 14.9343 28.8048 14.9356C30.315 14.9356 31.7903 15.0449 33.2066 15.2591C33.1645 14.9487 33.1887 14.6329 33.2778 14.3326C33.3669 14.0323 33.5188 13.7544 33.7233 13.5172C33.9279 13.28 34.1805 13.0889 34.4644 12.9567C34.7483 12.8244 35.0571 12.754 35.3703 12.75H35.3682ZM21.7015 26.9565C20.6871 26.9565 19.7143 27.3594 18.997 28.0767C18.2797 28.794 17.8767 29.7669 17.8767 30.7813C17.8767 31.7957 18.2797 32.7686 18.997 33.4859C19.7143 34.2032 20.6871 34.6061 21.7015 34.6061C22.7159 34.6061 23.6888 34.2032 24.4061 33.4859C25.1234 32.7686 25.5263 31.7957 25.5263 30.7813C25.5263 29.7669 25.1234 28.794 24.4061 28.0767C23.6888 27.3594 22.7159 26.9565 21.7015 26.9565ZM35.908 26.9565C34.8936 26.9565 33.9207 27.3594 33.2034 28.0767C32.4861 28.794 32.0832 29.7669 32.0832 30.7813C32.0832 31.7957 32.4861 32.7686 33.2034 33.4859C33.9207 34.2032 34.8936 34.6061 35.908 34.6061C36.9224 34.6061 37.8953 34.2032 38.6126 33.4859C39.3298 32.7686 39.7328 31.7957 39.7328 30.7813C39.7328 29.7669 39.3298 28.794 38.6126 28.0767C37.8953 27.3594 36.9224 26.9565 35.908 26.9565Z" fill="white"/>
</svg>
