<svg width="29" height="27" viewBox="0 0 29 27" fill="none" xmlns="http://www.w3.org/2000/svg">
    <path
        d="M1.9092 13.985C2.48176 14.39 3.24984 14.5855 4.00395 14.5855C4.77202 14.5855 5.52613 14.39 6.0987 13.985C6.96453 13.3426 7.4952 12.3511 7.4952 11.192C7.4952 12.3511 8.0119 13.3426 8.8917 13.985C9.46426 14.39 10.2323 14.5855 10.9864 14.5855C11.7545 14.5855 12.5086 14.39 13.0812 13.985C13.947 13.3426 14.4777 12.3511 14.4777 11.192C14.4777 12.3511 14.9944 13.3426 15.8742 13.985C16.4468 14.39 17.2148 14.5855 17.9829 14.5855C18.737 14.5855 19.4911 14.39 20.0637 13.985C20.9295 13.3426 21.4602 12.3511 21.4602 11.192C21.4602 12.3511 21.9769 13.3426 22.8567 13.985C23.4293 14.39 24.1973 14.5855 24.9514 14.5855C25.7195 14.5855 26.4736 14.39 27.0462 13.985C27.926 13.3426 28.4427 12.3511 28.4427 11.192V9.79552L24.2532 0.0200195H6.0987L0.512695 9.79552V11.192C0.512695 12.3511 1.0294 13.3426 1.9092 13.985ZM4.7022 26.5396H11.6847V19.5571H17.2707V26.5396H24.2532V16.7641C23.7365 16.6942 23.2477 16.4568 22.8567 16.1636C21.9769 15.5351 21.4602 15.1441 21.4602 13.985C21.4602 15.1441 20.9295 15.5351 20.0637 16.1636C19.4911 16.5825 18.737 16.7641 17.9829 16.778C17.2148 16.778 16.4468 16.5825 15.8742 16.1636C14.9944 15.5351 14.4777 15.1441 14.4777 13.985C14.4777 15.1441 13.947 15.5351 13.0812 16.1636C12.5086 16.5825 11.7545 16.7641 10.9864 16.778C10.2323 16.778 9.46426 16.5825 8.8917 16.1636C8.0119 15.5351 7.4952 15.1441 7.4952 13.9711C7.4952 15.1441 6.96453 15.5351 6.0987 16.1636C5.69371 16.4568 5.2189 16.6942 4.7022 16.778V26.5396Z"
        fill="#fff" />
</svg>