<svg width="28" height="29" viewBox="0 0 28 29" fill="none" xmlns="http://www.w3.org/2000/svg">
    <path fill-rule="evenodd" clip-rule="evenodd"
        d="M3.49121 15.6392H3.98996H24.9375H25.4362V16.1379V16.1387V16.1395V16.1403V16.1411V16.1419V16.1427V16.1435V16.1443V16.1451V16.1459V16.1467V16.1474V16.1482V16.149V16.1498V16.1506V16.1514V16.1522V16.1529V16.1537V16.1545V16.1553V16.1561V16.1568V16.1576V16.1584V16.1592V16.1599V16.1607V16.1615V16.1622V16.163V16.1638V16.1645V16.1653V16.1661V16.1668V16.1676V16.1684V16.1691V16.1699V16.1707V16.1714V16.1722V16.1729V16.1737V16.1744V16.1752V16.176V16.1767V16.1775V16.1782V16.179V16.1797V16.1805V16.1812V16.182V16.1827V16.1835V16.1842V16.1849V16.1857V16.1864V16.1872V16.1879V16.1887V16.1894V16.1901V16.1909V16.1916V16.1923V16.1931V16.1938V16.1946V16.1953V16.196V16.1968V16.1975V16.1982V16.1989V16.1997V16.2004V16.2011V16.2019V16.2026V16.2033V16.204V16.2048V16.2055V16.2062V16.2069V16.2077V16.2084V16.2091V16.2098V16.2105V16.2113V16.212V16.2127V16.2134V16.2141V16.2148V16.2156V16.2163V16.217V16.2177V16.2184V16.2191V16.2198V16.2205V16.2213V16.222V16.2227V16.2234V16.2241V16.2248V16.2255V16.2262V16.2269V16.2276V16.2283V16.229V16.2297V16.2304V16.2311V16.2318V16.2325V16.2332V16.2339V16.2346V16.2353V16.236V16.2367V16.2374V16.2381V16.2388V16.2395V16.2402V16.2409V16.2416V16.2423V16.243V16.2437V16.2444V16.2451V16.2458V16.2465V16.2471V16.2478V16.2485V16.2492V16.2499V16.2506V16.2513V16.252V16.2527V16.2533V16.254V16.2547V16.2554V16.2561V16.2568V16.2575V16.2581V16.2588V16.2595V16.2602V16.2609V16.2616V16.2622V16.2629V16.2636V16.2643V16.265V16.2656V16.2663V16.267V16.2677V16.2684V16.269V16.2697V16.2704V16.2711V16.2718V16.2724V16.2731V16.2738V16.2745V16.2751V16.2758V16.2765V16.2772V16.2778V16.2785V16.2792V16.2799V16.2805V16.2812V16.2819V16.2826V16.2832V16.2839V16.2846V16.2853V16.2859V16.2866V16.2873V16.2879V16.2886V16.2893V16.29V16.2906V16.2913V16.292V16.2926V16.2933V16.294V16.2946V16.2953V16.296V16.2967V16.2973V16.298V16.2987V16.2993V16.3V16.3007V16.3013V16.302V16.3027V16.3033V16.304V16.3047V16.3053V16.306V16.3067V16.3073V16.308V16.3087V16.3094V16.31V16.3107V16.3114V16.312V16.3127V16.3134V16.314V16.3147V16.3154V16.316V16.3167V16.3174V16.318V16.3187V16.3194V16.32V16.3207V16.3214V16.322V16.3227V16.3234V16.324V16.3247V16.3254V16.326V16.3267V16.3274V16.328V16.3287V16.3294V16.33V16.3307V16.3314V16.332V16.3327V16.3334V16.334V16.3347V16.3354V16.336V16.3367V16.3374V16.338V16.3387V16.3394V16.3401V16.3407V16.3414V16.3421V16.3427V16.3434V16.3441V16.3447V16.3454V16.3461V16.3467V16.3474V16.3481V16.3488V16.3494V16.3501V16.3508V16.3514V16.3521V16.3528V16.3535V16.3541V16.3548V16.3555V16.3561V16.3568V16.3575V16.3582V16.3588V16.3595V16.3602V16.3609V16.3615V16.3622V16.3629V16.3636V16.3642V16.3649V16.3656V16.3663V16.3669V16.3676V16.3683V16.369V16.3697V16.3703V16.371V16.3717V16.3724V16.373V16.3737V16.3744V16.3751V16.3758V16.3765V16.3771V16.3778V16.3785V16.3792V16.3799V16.3805V16.3812V16.3819V16.3826V16.3833V16.384V16.3847V16.3853V16.386V16.3867V16.3874V16.3881V16.3888V16.3895V16.3901V16.3908V16.3915V16.3922V16.3929V16.3936V16.3943V16.395V16.3957V16.3964V16.3971V16.3978V16.3984V16.3991V16.3998V16.4005V16.4012V16.4019V16.4026V16.4033V16.404V16.4047V16.4054V16.4061V16.4068V16.4075V16.4082V16.4089V16.4096V16.4103V16.411V16.4117V16.4124V16.4131V16.4138V16.4146V16.4153V16.416V16.4167V16.4174V16.4181V16.4188V16.4195V16.4202V16.4209V16.4216V16.4224V16.4231V16.4238V16.4245V16.4252V16.4259V16.4266V16.4274V16.4281V16.4288V16.4295V16.4302V16.431V16.4317V16.4324V16.4331V16.4338V16.4346V16.4353V16.436V16.4367V16.4375V16.4382V16.4389V16.4396V16.4404V16.4411V16.4418V16.4426V16.4433V16.444V16.4448V16.4455V16.4462V16.447V16.4477V16.4484V16.4492V16.4499V16.4507V16.4514V16.4521V16.4529V16.4536V16.4544V16.4551V16.4559V16.4566V16.4573V16.4581V16.4588V16.4596V16.4603V16.4611V16.4618V16.4626V16.4633V16.4641V16.4649V16.4656V16.4664V16.4671V16.4679V16.4686V16.4694V16.4702V16.4709V16.4717V16.4724V16.4732V16.474V16.4747V16.4755V16.4763V16.477V16.4778V16.4786V16.4794V16.4801V16.4809V16.4817V16.4824V16.4832V16.484V16.4848V16.4856V16.4863V16.4871V16.4879V16.4887V16.4895V16.4903V16.491V16.4918V16.4926V16.4934V16.4942V16.495V16.4958V16.4966V16.4974V16.4982V16.4989V16.4997V16.5005V16.5013V16.5021C25.4362 22.6448 20.5439 27.6092 14.4637 27.6092C8.38351 27.6092 3.49121 22.6448 3.49121 16.5021V16.5013V16.5005V16.4997V16.4989V16.4982V16.4974V16.4966V16.4958V16.495V16.4942V16.4934V16.4926V16.4918V16.491V16.4903V16.4895V16.4887V16.4879V16.4871V16.4863V16.4856V16.4848V16.484V16.4832V16.4824V16.4817V16.4809V16.4801V16.4794V16.4786V16.4778V16.477V16.4763V16.4755V16.4747V16.474V16.4732V16.4724V16.4717V16.4709V16.4702V16.4694V16.4686V16.4679V16.4671V16.4664V16.4656V16.4649V16.4641V16.4633V16.4626V16.4618V16.4611V16.4603V16.4596V16.4588V16.4581V16.4573V16.4566V16.4559V16.4551V16.4544V16.4536V16.4529V16.4521V16.4514V16.4507V16.4499V16.4492V16.4484V16.4477V16.447V16.4462V16.4455V16.4448V16.444V16.4433V16.4426V16.4418V16.4411V16.4404V16.4396V16.4389V16.4382V16.4375V16.4367V16.436V16.4353V16.4346V16.4338V16.4331V16.4324V16.4317V16.431V16.4302V16.4295V16.4288V16.4281V16.4274V16.4266V16.4259V16.4252V16.4245V16.4238V16.4231V16.4224V16.4216V16.4209V16.4202V16.4195V16.4188V16.4181V16.4174V16.4167V16.416V16.4153V16.4146V16.4138V16.4131V16.4124V16.4117V16.411V16.4103V16.4096V16.4089V16.4082V16.4075V16.4068V16.4061V16.4054V16.4047V16.404V16.4033V16.4026V16.4019V16.4012V16.4005V16.3998V16.3991V16.3984V16.3978V16.3971V16.3964V16.3957V16.395V16.3943V16.3936V16.3929V16.3922V16.3915V16.3908V16.3901V16.3895V16.3888V16.3881V16.3874V16.3867V16.386V16.3853V16.3847V16.384V16.3833V16.3826V16.3819V16.3812V16.3805V16.3799V16.3792V16.3785V16.3778V16.3771V16.3765V16.3758V16.3751V16.3744V16.3737V16.373V16.3724V16.3717V16.371V16.3703V16.3697V16.369V16.3683V16.3676V16.3669V16.3663V16.3656V16.3649V16.3642V16.3636V16.3629V16.3622V16.3615V16.3609V16.3602V16.3595V16.3588V16.3582V16.3575V16.3568V16.3561V16.3555V16.3548V16.3541V16.3535V16.3528V16.3521V16.3514V16.3508V16.3501V16.3494V16.3488V16.3481V16.3474V16.3467V16.3461V16.3454V16.3447V16.3441V16.3434V16.3427V16.3421V16.3414V16.3407V16.3401V16.3394V16.3387V16.338V16.3374V16.3367V16.336V16.3354V16.3347V16.334V16.3334V16.3327V16.332V16.3314V16.3307V16.33V16.3294V16.3287V16.328V16.3274V16.3267V16.326V16.3254V16.3247V16.324V16.3234V16.3227V16.322V16.3214V16.3207V16.32V16.3194V16.3187V16.318V16.3174V16.3167V16.316V16.3154V16.3147V16.314V16.3134V16.3127V16.312V16.3114V16.3107V16.31V16.3094V16.3087V16.308V16.3073V16.3067V16.306V16.3053V16.3047V16.304V16.3033V16.3027V16.302V16.3013V16.3007V16.3V16.2993V16.2987V16.298V16.2973V16.2967V16.296V16.2953V16.2946V16.294V16.2933V16.2926V16.292V16.2913V16.2906V16.29V16.2893V16.2886V16.2879V16.2873V16.2866V16.2859V16.2853V16.2846V16.2839V16.2832V16.2826V16.2819V16.2812V16.2805V16.2799V16.2792V16.2785V16.2778V16.2772V16.2765V16.2758V16.2751V16.2745V16.2738V16.2731V16.2724V16.2718V16.2711V16.2704V16.2697V16.269V16.2684V16.2677V16.267V16.2663V16.2656V16.265V16.2643V16.2636V16.2629V16.2622V16.2616V16.2609V16.2602V16.2595V16.2588V16.2581V16.2575V16.2568V16.2561V16.2554V16.2547V16.254V16.2533V16.2527V16.252V16.2513V16.2506V16.2499V16.2492V16.2485V16.2478V16.2471V16.2465V16.2458V16.2451V16.2444V16.2437V16.243V16.2423V16.2416V16.2409V16.2402V16.2395V16.2388V16.2381V16.2374V16.2367V16.236V16.2353V16.2346V16.2339V16.2332V16.2325V16.2318V16.2311V16.2304V16.2297V16.229V16.2283V16.2276V16.2269V16.2262V16.2255V16.2248V16.2241V16.2234V16.2227V16.222V16.2213V16.2205V16.2198V16.2191V16.2184V16.2177V16.217V16.2163V16.2156V16.2148V16.2141V16.2134V16.2127V16.212V16.2113V16.2105V16.2098V16.2091V16.2084V16.2077V16.2069V16.2062V16.2055V16.2048V16.204V16.2033V16.2026V16.2019V16.2011V16.2004V16.1997V16.1989V16.1982V16.1975V16.1968V16.196V16.1953V16.1946V16.1938V16.1931V16.1923V16.1916V16.1909V16.1901V16.1894V16.1887V16.1879V16.1872V16.1864V16.1857V16.1849V16.1842V16.1835V16.1827V16.182V16.1812V16.1805V16.1797V16.179V16.1782V16.1775V16.1767V16.176V16.1752V16.1744V16.1737V16.1729V16.1722V16.1714V16.1707V16.1699V16.1691V16.1684V16.1676V16.1668V16.1661V16.1653V16.1645V16.1638V16.163V16.1622V16.1615V16.1607V16.1599V16.1592V16.1584V16.1576V16.1568V16.1561V16.1553V16.1545V16.1537V16.1529V16.1522V16.1514V16.1506V16.1498V16.149V16.1482V16.1474V16.1467V16.1459V16.1451V16.1443V16.1435V16.1427V16.1419V16.1411V16.1403V16.1395V16.1387V16.1379V15.6392ZM4.48957 16.6367C4.56023 22.1779 8.99059 26.6117 14.4637 26.6117C19.9368 26.6117 24.3672 22.1779 24.4379 16.6367H4.48957Z"
        fill="#fff" />
    <path
        d="M9.87885 17.1357H4.9873C4.9873 17.2419 4.9873 17.3126 4.9873 17.4188C4.9873 20.7267 7.48105 23.6195 9.02124 24.1182C9.02124 23.4814 8.32245 22.7611 8.32245 22.4073C8.32245 21.8766 8.57655 21.6997 8.57655 21.6997C8.57655 21.6997 9.02124 21.3459 9.43416 20.9921C9.84709 20.6383 10.133 20.2845 9.87885 19.9661C9.62474 19.6477 8.70361 19.5062 9.02124 18.8693C9.37064 18.1971 9.87885 17.1357 9.87885 17.1357Z"
        fill="#fff" />
    <path
        d="M14.7271 26.1133C18.8756 26.1133 23.0886 22.9425 23.9398 18.1333L18.4812 19.7716C18.4812 19.7716 17.6209 19.466 17.5818 20.4975C17.5427 21.529 17.66 22.3694 16.9561 22.3312C16.2522 22.293 15.079 22.3312 15.079 22.3312C15.079 22.3312 14.7662 22.2166 14.2969 22.9425C13.9058 23.5919 13.241 24.7762 12.9673 25.9605C13.593 26.0751 14.1405 26.1133 14.7271 26.1133Z"
        fill="#fff" />
    <path
        d="M14.9808 4.16797C14.9808 4.16797 11.9697 5.93945 11.9697 9.66256C11.9697 10.8335 12.7876 13.1455 14.9808 13.1455C17.1741 13.1455 17.9547 10.8035 17.9547 9.63253C17.9547 8.46156 17.806 6.32977 14.9808 4.16797Z"
        fill="#fff" />
    <path
        d="M6.99852 8.1582C6.99852 8.1582 4.9873 9.34364 4.9873 11.8302C4.9873 12.6108 5.50633 14.1432 6.99852 14.1432C8.49072 14.1432 8.9773 12.5819 8.9773 11.8012C8.9773 11.0206 8.87999 9.60386 6.99852 8.1582Z"
        fill="#fff" />
    <path
        d="M21.9609 7.16064C21.9609 7.16064 19.9497 8.54365 19.9497 11.4446C19.9497 12.3554 20.4687 14.1431 21.9609 14.1431C23.4531 14.1431 23.9397 12.3216 23.9397 11.4109C23.9397 10.5001 23.8424 8.84724 21.9609 7.16064Z"
        fill="#fff" />
    <path fill-rule="evenodd" clip-rule="evenodd" d="M6.62012 16.1379V11.1504H7.3456V16.1379H6.62012Z" fill="#fff" />
    <path fill-rule="evenodd" clip-rule="evenodd" d="M14.6001 16.1379V11.1504H15.3256V16.1379H14.6001Z"
        fill="#fff" />
    <path fill-rule="evenodd" clip-rule="evenodd" d="M21.5825 16.1379V11.1504H22.308V16.1379H21.5825Z" fill="#fff" />
    <path
        d="M10.9223 3.00171C10.4734 3.00171 10.0744 3.15387 9.77519 3.35676C9.77519 3.30604 9.77519 3.30604 9.77519 3.25532C9.77519 2.08875 8.87744 1.17578 7.73031 1.17578C6.63306 1.2265 5.73531 2.03803 5.68544 3.15387C5.48594 3.05243 5.23656 3.00171 5.03706 3.00171C3.88994 3.00171 2.99219 3.9654 2.99219 5.08125C2.99219 6.24782 3.88994 7.16078 5.03706 7.16078H10.9223C12.0694 7.16078 12.9672 6.24782 12.9672 5.08125C12.9672 3.9654 12.0196 3.00171 10.9223 3.00171Z"
        fill="#fff" />
</svg>